<svg width="259" height="48" viewBox="0 0 259 48" fill="none" xmlns="http://www.w3.org/2000/svg">
<g clip-path="url(#clip0_137_300)">
<path d="M70.8139 47.9759H65.9179V35.7839H65.8459C64.5499 37.7039 62.1019 38.9039 59.3419 38.9039C53.3659 38.9039 49.6699 34.2479 49.6699 28.6079C49.6699 22.9679 53.6059 18.5039 59.2219 18.5039C62.8459 18.5039 65.0299 20.2319 66.0139 21.7679H66.1099V19.0799H70.8139V47.9999H70.7899L70.8139 47.9759ZM60.3019 34.8479C63.9259 34.8479 66.0619 31.6799 66.0619 28.6559C66.0619 25.6319 63.9019 22.3919 60.3019 22.3919C56.4859 22.3919 54.6619 25.5599 54.6619 28.5839C54.6619 31.6079 56.5099 34.8479 60.3019 34.8479Z" fill="black"/>
<path d="M93.7341 38.3281H89.0781V35.2321H89.0061C88.1421 37.1521 85.8141 38.8801 82.9101 38.8801C77.7981 38.8801 75.6621 35.0161 75.6621 31.0801V19.0081H80.5581V29.6881C80.5581 31.9921 81.0861 34.8241 84.2541 34.8241C87.4221 34.8241 88.8381 32.1601 88.8381 29.6161V19.0081H93.7581V38.2801L93.7341 38.3281Z" fill="black"/>
<path d="M98.7266 19.0559H103.647V38.3279H98.7266V19.0559Z" fill="black"/>
<path d="M121.958 24.408C121.19 23.304 119.486 22.536 117.902 22.536C114.278 22.536 112.502 25.704 112.502 28.728C112.502 31.752 114.35 34.92 118.07 34.92C119.606 34.92 121.262 34.32 122.198 33.192L125.246 36.24C123.614 37.968 120.902 38.928 117.998 38.928C112.19 38.928 107.342 35.136 107.342 28.728C107.342 22.32 112.094 18.552 117.854 18.552C120.71 18.552 123.71 19.68 125.246 21.552L121.886 24.432H121.934L121.958 24.408Z" fill="black"/>
<path d="M127.791 7.99194H132.711V27.1919H132.831L140.295 19.0799H146.607L138.087 27.8159L147.135 38.3759H140.631L132.855 28.5119H132.759V38.3759H127.839V7.99194H127.815H127.791Z" fill="black"/>
<path d="M154.31 7.99202V21.504H154.454C155.462 20.256 157.454 18.504 161.03 18.504C166.622 18.504 170.581 22.944 170.581 28.608C170.581 34.272 166.885 38.904 160.909 38.904C158.173 38.904 155.51 37.656 154.166 35.472H154.094V38.352H149.438V7.96802H154.31V7.99202ZM159.926 22.44C156.302 22.44 154.166 25.704 154.166 28.704C154.166 31.704 156.326 34.896 159.926 34.896C163.742 34.896 165.566 31.656 165.566 28.632C165.566 25.608 163.718 22.44 159.926 22.44Z" fill="black"/>
<path d="M184.022 18.5039C189.974 18.5039 194.702 22.5599 194.702 28.6079C194.702 34.6559 189.95 38.9039 184.022 38.9039C178.094 38.9039 173.342 34.6799 173.342 28.6079C173.342 22.5359 178.094 18.5039 184.022 18.5039ZM184.022 34.8959C187.91 34.8959 189.734 31.6559 189.734 28.6319C189.734 25.6079 187.934 22.4399 184.022 22.4399C180.11 22.4399 178.334 25.6079 178.334 28.6319C178.334 31.6559 180.134 34.8959 184.022 34.8959Z" fill="black"/>
<path d="M208.047 18.5039C213.999 18.5039 218.727 22.5599 218.727 28.6079C218.727 34.6559 213.975 38.9039 208.047 38.9039C202.119 38.9039 197.367 34.6799 197.367 28.6079C197.367 22.5359 202.119 18.5039 208.047 18.5039ZM208.047 34.8959C211.935 34.8959 213.735 31.6559 213.735 28.6319C213.735 25.6079 211.935 22.4399 208.047 22.4399C204.159 22.4399 202.335 25.6079 202.335 28.6319C202.335 31.6559 204.135 34.8959 208.047 34.8959Z" fill="black"/>
<path d="M222.59 7.99194H227.51V27.1919H227.654L235.118 19.0799H241.43L232.91 27.8159L241.958 38.3759H235.454L227.678 28.5119H227.534V38.3759H222.614V7.99194H222.59Z" fill="black"/>
<path d="M255.327 24.2159C254.463 23.0879 252.831 22.1279 251.031 22.1279C249.471 22.1279 247.863 22.6799 247.863 24.2159C247.863 25.7519 249.375 26.0879 252.111 26.7359C255.039 27.4079 258.447 28.7039 258.447 32.4959C258.447 37.1999 254.559 38.9279 250.263 38.9279C247.239 38.9279 244.071 37.7999 242.199 35.7599L245.439 32.7839C246.519 34.1279 248.343 35.2079 250.479 35.2079C251.895 35.2079 253.647 34.6319 253.647 32.9279C253.647 31.3199 252.135 30.8399 249.135 30.1679C246.207 29.4959 243.327 28.3199 243.327 24.7199C243.327 20.4239 247.263 18.5759 251.151 18.5759C253.959 18.5759 256.911 19.5359 258.519 21.5039L255.327 24.2639V24.2159Z" fill="black"/>
<path d="M22.4304 43.416C34.4064 43.416 44.1264 33.696 44.1264 21.72C44.1264 9.744 34.4304 0 22.4304 0C10.4304 0 0.734375 9.72 0.734375 21.696C0.734375 33.672 10.4544 43.392 22.4304 43.392V43.416Z" fill="#2CA01C"/>
<path d="M6.8072 21.6959C6.8072 26.2799 10.5512 29.9519 15.2072 29.9519H16.4072V26.8799H15.2072C12.3272 26.8799 9.9272 24.5279 9.9272 21.6959C9.9272 18.8639 12.3272 16.5119 15.2072 16.5119H18.0872V32.5439C18.0872 34.1999 19.5272 35.6159 21.2072 35.6159V13.4399H15.1832C10.5032 13.4399 6.7832 17.0879 6.7832 21.6959H6.8072ZM29.6552 13.4399H28.4552V16.5119H29.6552C32.5352 16.5119 34.9352 18.8639 34.9352 21.6959C34.9352 24.5279 32.5352 26.8799 29.6552 26.8799H26.7752V10.8479C26.7752 9.19188 25.3352 7.77588 23.6552 7.77588V29.9519H29.6792C34.3592 29.9519 38.0792 26.3039 38.0792 21.6959C38.0792 17.0879 34.3352 13.4399 29.6792 13.4399H29.6552Z" fill="white"/>
</g>
<defs>
<clipPath id="clip0_137_300">
<rect width="257.808" height="48" fill="white" transform="translate(0.734375)"/>
</clipPath>
</defs>
</svg>
