<svg width="181" height="48" viewBox="0 0 181 48" fill="none" xmlns="http://www.w3.org/2000/svg">
<path d="M4.3998 38.1095L4.67009 38.1996C7.9436 39.2507 11.3973 37.5689 12.4184 34.5057L16.0823 22.5528C17.0734 19.4896 15.2414 16.1259 11.9679 15.0748L11.6976 14.9847C8.42412 13.9336 4.97041 15.6154 3.94932 18.6787L0.255359 30.6315C-0.705671 33.6948 1.12629 37.0584 4.3998 38.1095Z" fill="#084F99"/>
<path d="M43.5917 4.233C44.2524 2.61126 45.5138 1.31988 47.0755 0.569075C47.1656 0.539043 47.2256 0.50901 47.3157 0.478978C47.3457 0.448945 47.4058 0.448946 47.4358 0.418914C48.6672 -0.0616011 50.0486 -0.151698 51.3701 0.268753L51.6403 0.358851C54.9139 1.40998 56.6257 5.10393 55.4845 8.6177L46.5349 38.8001C44.1924 45.7375 36.8044 49.3414 30.4076 47.5394C30.4076 47.5394 28.6957 47.0289 27.975 46.5183C34.3718 45.1669 42.3304 7.29629 43.5917 4.233Z" fill="#5EB7FF"/>
<path d="M5.42096 42.0739L5.69125 42.164C7.0427 42.5845 8.45421 42.6445 9.83569 42.3142C10.0459 42.2842 10.2561 42.2241 10.4664 42.134C13.0792 41.2931 15.3616 39.1608 16.3226 36.1876L23.2901 13.243C24.4313 9.75929 28.0352 7.74712 31.2787 8.76822L31.549 8.85832C34.8225 9.90945 36.5343 13.6034 35.3931 17.1172C35.3931 17.1172 28.786 38.8605 27.855 40.6925C21.0978 52.9156 8.42418 46.9391 4.82031 41.8337C5.00051 41.9238 5.21073 42.0139 5.42096 42.0739Z" fill="#1479FB"/>
<path d="M154.771 18.1382L154.801 18.0181C154.801 17.928 154.771 17.8379 154.741 17.7778C154.56 17.4175 153.539 16.6967 151.888 16.5465C151.737 16.5465 151.587 16.5165 151.467 16.5165C150.296 16.5165 149.004 16.997 148.734 17.5076L148.704 17.5676L141.977 34.1154L135.49 17.5076C135.22 16.997 133.688 16.4564 132.547 16.4564C132.487 16.4564 132.367 16.4564 132.277 16.4564C132.096 16.4564 131.946 16.4264 131.766 16.4564C130.144 16.6366 129.574 17.3274 129.363 17.7178C129.333 17.8079 129.303 17.8679 129.303 17.958V18.0782C129.574 18.7389 138.373 40.6924 138.854 41.8937L138.884 41.9237C139.214 42.2841 140.896 42.8247 141.977 42.8247C143.058 42.8247 144.65 42.4343 144.98 42.0439L145.01 42.0138L154.771 18.2283C154.741 18.1983 154.771 18.1382 154.771 18.1382ZM121.675 33.3646C121.675 35.0764 121.255 36.3077 120.474 36.8183C119.813 37.2087 118.552 37.6892 116.329 37.6892H116.089C114.197 37.6892 112.726 37.3288 111.704 36.6381C110.924 36.0975 110.473 35.3467 110.473 34.5659C110.473 32.2233 111.795 31.8029 115.729 31.7128H121.675V33.3646ZM127.141 41.8637C127.171 41.8036 127.201 41.7135 127.201 41.6234V24.9856C127.171 21.8322 126.15 19.5798 124.168 18.2884C122.276 17.0571 119.723 16.4564 116.6 16.4564H116.059C112.035 16.4564 108.401 17.898 106.569 20.1804C106.539 20.2105 106.509 20.2705 106.509 20.3306C106.299 20.9913 107.17 22.0124 108.101 22.6731C108.911 23.2437 109.752 23.6341 110.353 23.6341C110.473 23.6041 111.014 23.2437 111.134 23.1536C111.735 22.583 113.416 21.2015 115.609 21.1715L116.57 21.1415C118.402 21.1415 120.174 21.9824 120.984 22.7932C121.465 23.2737 121.705 23.9044 121.675 24.7153V27.1779H113.717C110.954 27.208 108.821 27.9588 107.38 29.4303C105.938 30.8719 105.188 32.7039 105.188 34.8662C105.188 37.1486 106.028 39.0406 107.68 40.4822C109.332 42.0439 112.756 42.7646 115.459 42.7947C117.2 42.7947 118.612 42.5844 119.603 42.134C120.204 41.8937 120.744 41.5634 121.165 41.1429L121.645 40.6624V41.6234C121.645 41.7135 121.675 41.8036 121.705 41.8637C122.006 42.4943 123.327 42.7646 124.408 42.7646C125.489 42.7646 126.871 42.4943 127.141 41.8637ZM161.588 26.4271C161.918 23.9345 162.699 22.8533 163.75 21.9824C164.861 21.1114 166.183 20.9012 168.105 20.8411C169.727 20.7811 171.769 21.4718 172.7 22.3728C173.601 23.3038 174.141 24.6252 174.292 26.3671L174.322 26.6674L161.528 26.7575L161.588 26.4271ZM179.577 38.5601C179.757 37.8694 178.856 36.8183 177.956 36.1576C177.175 35.5869 176.334 35.2266 175.673 35.1965C175.313 35.1965 175.072 35.3767 175.012 35.4368C173.421 36.8783 171.649 37.5991 169.667 37.5991C167.895 37.5991 164.831 36.9985 163.66 35.8572C162.489 34.8061 161.768 33.2444 161.678 31.5626L161.648 31.2623H161.948C162.099 31.2623 178.496 31.5026 178.766 31.5026C179.037 31.5026 179.277 31.3824 179.457 31.1722C180.208 30.3613 180.238 28.1089 180.148 26.9076V26.8776C180.118 23.3338 178.977 20.5108 176.814 18.4986C174.562 16.4264 170.718 15.2551 166.754 15.4654C165.162 15.5555 163.93 15.7657 162.789 16.1561C161.408 16.6366 160.146 17.4175 159.125 18.4386C158.044 19.4897 157.173 20.9012 156.482 22.7031C155.822 24.445 155.461 26.6974 155.461 29.3102C155.461 32.0431 155.852 34.2956 156.633 36.0074C157.353 37.8093 158.314 39.2509 159.456 40.2419C160.026 40.7224 160.687 41.1429 161.348 41.4432C164.141 42.9448 166.754 43.125 168.646 43.2452H168.796C168.946 43.2452 174.682 43.3953 179.427 38.7103C179.517 38.7103 179.547 38.6502 179.577 38.5601ZM96.8085 41.9237C97.3191 40.6324 104.136 18.4085 104.347 17.7178L104.377 17.5676C104.377 17.4775 104.347 17.3874 104.317 17.3274C104.196 17.0871 103.175 16.1861 101.403 15.9759C101.223 15.9459 101.013 15.9459 100.803 15.9459C99.5415 15.9459 98.19 16.3964 97.9497 16.8769L97.9197 16.9369L93.1146 33.8751L86.8979 16.8769C86.7177 16.3663 85.4864 15.8858 84.4052 15.8858C83.294 15.8858 81.9426 16.3964 81.7624 16.8769L76.3866 33.6048L71.2511 17.0571L71.2211 16.967C70.9808 16.4865 69.6294 15.9159 68.338 15.9159C68.2179 15.9159 67.7374 15.9759 67.4671 15.9759L67.2268 16.0059C65.545 16.1561 64.9444 16.967 64.7942 17.2973C64.7642 17.3874 64.7341 17.4775 64.7341 17.5676V17.6277V17.6577L72.6927 41.8937C72.9329 42.4343 74.915 42.7947 76.1764 42.7947C77.4678 42.7947 79.57 42.4643 79.9605 41.9237L84.5854 26.6373L90.0813 41.8937C90.3216 42.4343 92.3037 42.7947 93.565 42.7947C94.9465 42.7947 96.5683 42.4944 96.8085 41.9237Z" fill="#2B2B2B"/>
</svg>
