<svg width="121" height="120" viewBox="0 0 121 120" fill="none" xmlns="http://www.w3.org/2000/svg">
<path d="M21.3097 55.02C22.5937 53.235 23.6847 51.787 24.6867 50.281C24.9987 49.816 25.2337 49.198 25.2377 48.648C25.2847 44.593 25.2347 40.538 25.2827 36.484C25.2977 35.384 24.9737 34.562 24.1877 33.794C21.4047 31.072 18.6787 28.293 15.9067 25.559C15.4557 25.113 15.3727 24.746 15.4907 24.096C15.6807 23.045 15.8177 21.895 15.5897 20.873C14.8727 17.66 11.5547 15.747 8.38574 16.562C5.19474 17.382 3.31774 20.494 4.09674 23.67C4.86974 26.817 8.13174 28.738 11.3687 27.843C12.1997 27.614 12.6797 27.753 13.2467 28.348C15.6857 30.898 18.1917 33.382 20.6117 35.948C21.0017 36.36 21.2577 37.058 21.2767 37.636C21.3537 39.903 21.3087 42.175 21.3087 44.446C21.3097 47.849 21.3097 51.248 21.3097 55.02ZM9.86575 24.463C8.65975 24.488 7.74974 23.643 7.72174 22.475C7.69474 21.334 8.62674 20.353 9.75374 20.342C10.9077 20.327 12.0217 21.362 12.0217 22.443C12.0207 23.544 11.0647 24.439 9.86575 24.463Z" fill="black"/>
<path d="M43.7726 37.821C44.7606 37.642 45.6266 37.415 46.5056 37.344C47.3556 37.273 47.5626 36.88 47.5556 36.088C47.5216 32.601 47.5296 29.11 47.5556 25.62C47.5596 25.168 47.6706 24.649 47.9096 24.275C49.9006 21.17 51.9456 18.096 53.9466 14.998C54.3026 14.445 54.6266 14.152 55.3846 14.213C58.4666 14.462 61.0336 12.226 61.4876 9.00599C61.9036 6.04899 59.7696 2.98599 56.8416 2.33399C53.9546 1.69099 50.9936 3.46899 50.1046 6.39599C49.4536 8.53799 49.9446 10.471 51.3036 12.248C49.7966 14.509 48.4706 16.858 46.7986 18.929C44.3766 21.93 43.3586 25.167 43.7206 29.028C43.9906 31.917 43.7726 34.852 43.7726 37.821ZM55.5996 5.98099C56.8096 5.97699 57.7296 6.97799 57.7116 8.28399C57.6956 9.51299 56.8606 10.335 55.6536 10.31C54.4486 10.286 53.5356 9.24199 53.5896 7.95299C53.6386 6.77599 54.4406 5.98599 55.5996 5.98099Z" fill="black"/>
<path d="M30.4166 18.962C31.1796 19.352 31.3366 19.786 31.3346 20.544C31.3126 27.76 31.3206 34.976 31.3206 42.192C31.3206 42.62 31.3206 43.048 31.3206 43.646C32.3786 42.978 33.1666 42.396 34.0316 41.962C34.8246 41.565 35.0866 41.054 35.0806 40.161C35.0406 33.676 35.0756 27.19 35.0406 20.704C35.0336 19.844 35.2246 19.353 36.0456 18.918C38.5506 17.584 39.7346 14.796 39.0276 12.239C38.3066 9.622 35.9056 7.848 33.1276 7.878C30.4416 7.908 27.9716 9.827 27.3146 12.396C26.7116 14.756 28.0556 17.751 30.4166 18.962ZM33.3416 11.696C34.5496 11.769 35.5586 12.839 35.4466 13.925C35.3346 15.008 34.2876 15.853 33.1216 15.799C31.9286 15.745 30.8526 14.678 30.9266 13.623C31.0026 12.543 32.1546 11.623 33.3416 11.696Z" fill="black"/>
<path d="M56.5607 26.386C54.7437 26.39 54.1907 26.948 54.1807 28.795C54.1687 31.185 54.1747 33.577 54.1817 35.969C54.1817 36.276 54.2497 36.582 54.2887 36.922C55.4867 37.047 56.6107 37.164 57.9377 37.3C57.9377 34.909 57.9377 32.616 57.9377 30.347C58.1687 30.276 58.2797 30.211 58.3917 30.211C60.6627 30.2 62.9317 30.226 65.2007 30.175C66.0107 30.158 66.4927 30.345 66.9177 31.121C68.1137 33.302 70.6667 34.476 72.9737 34.064C75.7527 33.567 77.7667 31.374 77.9167 28.68C78.0717 25.819 76.3067 23.252 73.6427 22.47C71.0397 21.705 68.3567 22.814 66.9657 25.371C66.5307 26.173 66.0697 26.424 65.1947 26.406C62.3167 26.349 59.4367 26.378 56.5607 26.386ZM72.0407 26.197C73.1947 26.184 74.1677 27.176 74.1807 28.393C74.2027 29.528 73.2707 30.5 72.1347 30.522C70.9537 30.544 69.8847 29.587 69.8457 28.471C69.8017 27.244 70.7967 26.213 72.0407 26.197Z" fill="black"/>
<path d="M113.39 75.673C111.025 74.801 108.212 75.39 106.921 77.596C105.851 79.415 104.521 79.644 102.776 79.475C102.375 79.435 101.948 79.549 101.568 79.452C101.02 79.309 100.392 79.163 100.004 78.796C98.4318 77.329 96.9678 75.753 95.4088 74.276C94.9928 73.882 94.4028 73.519 93.8558 73.452C92.7848 73.325 91.6848 73.417 90.4738 73.417C90.4108 74.758 90.3548 75.92 90.3018 77.056C91.3228 77.221 92.3698 77.152 93.1548 77.573C94.0088 78.035 94.7288 78.865 95.3128 79.677C97.4988 82.697 100.382 83.872 104.031 83.25C105.16 83.061 105.812 83.495 106.417 84.518C107.72 86.731 110.477 87.678 112.989 86.995C115.451 86.325 117.309 84.079 117.408 81.64C117.511 79.11 115.796 76.565 113.39 75.673ZM111.392 83.401C110.263 83.414 109.305 82.458 109.32 81.329C109.325 80.166 110.333 79.123 111.437 79.127C112.583 79.131 113.685 80.193 113.651 81.258C113.615 82.28 112.45 83.385 111.392 83.401Z" fill="black"/>
<path d="M87.4237 58.263C89.2087 58.332 90.9927 58.274 92.7777 58.301C93.9457 58.318 94.8687 57.906 95.6657 57.035C97.4997 55.034 99.3957 53.085 101.255 51.1C101.669 50.662 101.995 50.422 102.694 50.659C104.82 51.374 106.716 50.773 108.275 49.238C109.902 47.631 110.424 45.627 109.854 43.421C109.013 40.186 105.724 38.36 102.555 39.295C99.4037 40.225 97.6297 43.54 98.7157 46.723C99.0457 47.691 98.8717 48.249 98.1987 48.925C96.5967 50.535 95.1017 52.249 93.4937 53.852C93.1147 54.228 92.4727 54.516 91.9457 54.531C89.5957 54.604 87.2457 54.563 84.6807 54.563C85.2977 55.701 85.7667 56.682 86.3547 57.589C86.5657 57.916 87.0497 58.248 87.4237 58.263ZM104.209 42.859C105.357 42.853 106.309 43.802 106.294 44.934C106.279 46.115 105.266 47.148 104.15 47.124C102.973 47.099 102.122 46.114 102.178 44.833C102.221 43.698 103.078 42.865 104.209 42.859Z" fill="black"/>
<path d="M99.0765 68.592C100.352 71.06 103.304 72.282 106.019 71.478C108.754 70.661 110.52 68.055 110.233 65.265C109.987 62.861 108.171 60.808 105.771 60.217C103.146 59.571 100.555 60.539 99.1725 62.905C98.6475 63.805 98.0645 63.99 97.1395 63.975C94.8285 63.923 92.5165 63.954 90.2075 63.958C89.8285 63.962 89.4505 64.013 88.9785 64.05C89.3175 65.367 89.6105 66.529 89.9185 67.737C92.8335 67.737 95.7075 67.737 98.6725 67.737C98.8365 68.082 98.9465 68.343 99.0765 68.592ZM104.276 63.832C105.44 63.855 106.338 64.843 106.317 66.074C106.299 67.144 105.37 67.972 104.213 67.948C103.078 67.925 102.162 66.977 102.179 65.842C102.189 64.673 103.101 63.801 104.276 63.832Z" fill="black"/>
<path d="M84.1089 78.145C83.8709 77.678 83.7489 77.059 83.8199 76.545C84.2579 73.495 84.2339 70.472 83.7909 67.419C81.2899 50.322 64.8859 38.391 47.8769 41.313C33.5859 43.767 22.6859 56.021 21.9819 70.565C21.4239 82.209 26.0139 91.358 35.6759 97.914C36.2429 98.297 36.4549 98.693 36.4529 99.375C36.4249 104.616 36.4339 109.858 36.4399 115.101C36.4399 117.111 36.8909 117.573 38.8889 117.573C45.4899 117.573 52.0899 117.573 58.6939 117.573C61.1829 117.573 63.6709 117.584 66.1649 117.569C67.6659 117.556 68.1729 117.027 68.2169 115.511C68.2339 115.022 68.2229 114.536 68.2229 114.04C68.2229 112.279 68.2229 110.511 68.2229 108.644C70.2449 108.644 72.1229 108.663 74.0049 108.644C78.0539 108.604 80.8139 105.848 80.8539 101.803C80.8709 99.432 80.8809 97.055 80.8329 94.675C80.8249 93.968 81.0399 93.606 81.7239 93.349C83.9129 92.539 86.0769 91.667 88.2429 90.787C89.5809 90.241 89.8759 89.361 89.2229 88.099C87.5069 84.787 85.7799 81.479 84.1089 78.145ZM68.3339 99.576C68.3049 100.756 67.6909 101.435 66.4999 101.621C64.9759 101.863 64.6909 102.502 65.5529 103.812C66.1999 104.807 66.1399 105.741 65.3679 106.585C64.5209 107.515 63.6269 108.401 62.7039 109.255C61.8339 110.063 60.9029 109.977 59.9329 109.341C58.6919 108.521 58.1189 108.793 57.8079 110.272C57.5119 111.67 56.9979 112.104 55.5549 112.128C54.4619 112.148 53.3649 112.148 52.2719 112.128C50.8299 112.107 50.2039 111.578 49.9219 110.19C49.6479 108.845 48.8949 108.548 47.6969 109.27C47.2579 109.536 46.7759 109.732 46.3819 109.926C45.9399 109.779 45.5549 109.759 45.3429 109.563C44.1409 108.421 42.9009 107.313 41.8329 106.052C41.2199 105.33 41.5839 104.458 42.0929 103.693C42.8659 102.529 42.5439 101.857 41.1559 101.625C39.8269 101.401 39.2809 100.852 39.2319 99.549C39.1859 98.334 39.1889 97.113 39.2309 95.9C39.2709 94.754 39.8409 94.016 41.0269 93.795C42.6029 93.5 42.8579 92.915 42.0369 91.602C41.3269 90.46 41.3949 89.651 42.3389 88.656C43.0929 87.863 43.8789 87.102 44.6539 86.328C45.6879 85.302 46.2879 85.239 47.5489 86.025C48.9249 86.88 49.6309 86.596 49.9549 85.003C50.1809 83.889 50.8049 83.28 51.9519 83.27C53.1279 83.253 54.3059 83.234 55.4789 83.263C56.9289 83.29 57.5279 83.811 57.8259 85.212C58.1189 86.59 58.7119 86.833 59.9189 86.084C61.1509 85.314 61.8979 85.373 62.9579 86.379C63.7199 87.11 64.4689 87.853 65.1929 88.621C66.1759 89.651 66.2389 90.461 65.4839 91.669C64.7129 92.903 65.0039 93.52 66.4819 93.796C67.7949 94.045 68.3029 94.599 68.3329 95.929C68.3649 97.142 68.3609 98.361 68.3339 99.576ZM74.7269 66.635C74.6949 67.881 74.1009 68.526 72.8339 68.755C71.4689 69.002 71.1589 69.682 71.8799 70.834C72.6919 72.128 72.6229 72.866 71.5609 73.964C70.8009 74.75 70.0459 75.547 69.2289 76.273C68.8239 76.628 68.2839 76.834 67.7399 77.141C67.1769 76.854 66.6719 76.62 66.1929 76.337C65.2139 75.756 64.4559 76.06 64.2509 77.147C63.9229 78.902 63.5189 79.251 61.7569 79.261C60.6589 79.265 59.5669 79.257 58.4709 79.261C57.2759 79.261 56.5989 78.704 56.3949 77.496C56.1309 75.937 55.5169 75.673 54.2079 76.483C53.0209 77.212 52.2889 77.153 51.2679 76.182C50.4769 75.427 49.7039 74.651 48.9479 73.857C47.9569 72.818 47.9199 72.038 48.7469 70.837C49.3509 69.965 49.1179 69.291 48.0949 68.923C45.9269 68.153 45.8499 68.043 45.8479 65.694C45.8479 64.763 45.8329 63.831 45.8649 62.9C45.8989 61.771 46.4609 61.115 47.6099 60.924C49.2419 60.653 49.5039 60.055 48.5859 58.647C47.9509 57.674 48.0489 56.788 48.7769 55.986C49.6169 55.055 50.5079 54.162 51.4379 53.316C52.2829 52.543 53.2019 52.488 54.2059 53.161C55.5029 54.036 56.1299 53.745 56.3959 52.161C56.5979 50.949 57.2789 50.401 58.4689 50.401C59.6869 50.403 60.9019 50.38 62.1189 50.407C63.4479 50.437 63.9989 50.945 64.2279 52.271C64.4749 53.707 65.1089 53.972 66.3919 53.178C67.5639 52.449 68.3179 52.509 69.3319 53.47C70.1229 54.225 70.8929 55.003 71.6509 55.79C72.6239 56.797 72.6919 57.536 71.9559 58.727C71.1409 60.048 71.4059 60.666 72.9499 60.92C74.1479 61.115 74.7309 61.781 74.7309 62.98C74.7299 64.204 74.7469 65.418 74.7269 66.635Z" fill="black"/>
<path d="M53.8524 92.343C50.8794 92.314 48.4854 94.658 48.4824 97.607C48.4784 100.533 50.8874 103.047 53.7304 103.078C56.6784 103.109 59.0794 100.667 59.0834 97.628C59.0824 94.717 56.7604 92.364 53.8524 92.343Z" fill="black"/>
<path d="M60.2084 58.721C56.7504 58.718 53.9664 61.523 53.9884 64.981C54.0104 68.343 56.8424 71.163 60.1974 71.167C63.5984 71.167 66.4484 68.285 66.4244 64.871C66.4004 61.484 63.6084 58.723 60.2084 58.721Z" fill="black"/>
</svg>
