<svg width="121" height="120" viewBox="0 0 121 120" fill="none" xmlns="http://www.w3.org/2000/svg">
<path d="M93.167 34.167V15.833H107.75C109.36 15.833 110.667 14.527 110.667 12.916C110.667 11.306 109.36 9.99902 107.75 9.99902H60.25C58.639 9.99902 57.333 11.305 57.333 12.916C57.333 14.527 58.639 15.833 60.25 15.833H74.833V34.166H70.709L57.75 47.125V61.209L66.5 69.959V61.708L63.582 58.791V49.541L73.125 40H95.292L104.834 49.542V58.792L101.917 61.709V69.96L110.667 61.21V47.125L97.708 34.167H93.167Z" fill="black"/>
<path d="M93.167 56.667H75.667C73.826 56.667 72.333 58.16 72.333 60V80.834H96.501V60C96.501 58.159 95.008 56.667 93.167 56.667Z" fill="black"/>
<path d="M49 60C49 58.159 47.507 56.667 45.667 56.667H28.167C26.326 56.667 24.834 58.16 24.834 60V80.834H49.001L49 60Z" fill="black"/>
<path d="M99.001 86.666H22.334C15.891 86.666 10.667 91.89 10.667 98.334C10.667 104.777 15.891 110 22.334 110H99.001C105.444 110 110.667 104.777 110.667 98.334C110.667 91.89 105.444 86.666 99.001 86.666ZM26.417 102.084C24.576 102.084 23.084 100.591 23.084 98.751C23.084 96.909 24.577 95.417 26.417 95.417C28.257 95.417 29.75 96.909 29.75 98.751C29.75 100.591 28.258 102.084 26.417 102.084ZM38.084 102.084C36.243 102.084 34.751 100.591 34.751 98.751C34.751 96.909 36.243 95.417 38.084 95.417C39.925 95.417 41.417 96.909 41.417 98.751C41.417 100.591 39.925 102.084 38.084 102.084ZM49.751 102.084C47.909 102.084 46.417 100.591 46.417 98.751C46.417 96.909 47.909 95.417 49.751 95.417C51.591 95.417 53.083 96.909 53.083 98.751C53.083 100.591 51.591 102.084 49.751 102.084ZM61.417 102.084C59.576 102.084 58.083 100.591 58.083 98.751C58.083 96.909 59.576 95.417 61.417 95.417C63.258 95.417 64.751 96.909 64.751 98.751C64.751 100.591 63.258 102.084 61.417 102.084ZM73.083 102.084C71.243 102.084 69.751 100.591 69.751 98.751C69.751 96.909 71.243 95.417 73.083 95.417C74.925 95.417 76.417 96.909 76.417 98.751C76.417 100.591 74.925 102.084 73.083 102.084ZM84.751 102.084C82.909 102.084 81.417 100.591 81.417 98.751C81.417 96.909 82.909 95.417 84.751 95.417C86.591 95.417 88.083 96.909 88.083 98.751C88.083 100.591 86.591 102.084 84.751 102.084ZM96.417 102.084C94.576 102.084 93.083 100.591 93.083 98.751C93.083 96.909 94.576 95.417 96.417 95.417C98.258 95.417 99.751 96.909 99.751 98.751C99.751 100.591 98.258 102.084 96.417 102.084Z" fill="black"/>
</svg>
