<svg width="512" height="512" viewBox="0 0 512 512" fill="none" xmlns="http://www.w3.org/2000/svg">
<path d="M421 497C421 489.888 417.353 487.784 406.322 475.013C393.933 488.594 391 489.844 391 497C391 505.276 397.724 512 406 512C414.276 512 421 505.276 421 497Z" fill="black"/>
<path d="M406 302C406 334.754 383.339 359.964 363.314 382.259C345.971 401.536 331 418.191 331 437C331 461.424 342.913 482.95 361.044 496.654C361.17 479.253 369.798 470.049 378.974 460.35C394.029 444.455 394.833 441.259 405.224 428.197C418.411 443.327 418.058 443.175 429.511 455.956C443.713 471.8 450.848 479.853 450.958 496.653C469.087 482.948 481 461.423 481 437C481 363.099 409.047 304.432 406 302Z" fill="black"/>
<path d="M301 437C301 406.663 321.347 384.061 341.02 362.19C358.217 343.03 376 323.24 376 302V241H61V422H31V452H302.745C302.022 447.027 301 442.123 301 437Z" fill="black"/>
<path d="M421 181H391V30H421V0H31V30H61V181H31V211H421V181Z" fill="black"/>
</svg>
