<svg width="121" height="120" viewBox="0 0 121 120" fill="none" xmlns="http://www.w3.org/2000/svg">
<path d="M75.639 75.004C74.285 76.348 70.658 79.16 69.048 79.539V110H52.258V79.539C51.197 79.255 48.423 77.39 47.523 76.65C46.292 75.637 44.682 74.093 43.773 72.778C40.355 67.826 39.758 64.664 39.758 58.83L39.749 58.849C39.749 52.959 43.831 46.378 48.537 43.225V60.6C49.143 60.76 53.745 63.621 54.702 64.198L60.649 67.825C62.932 66.291 67.25 63.801 69.769 62.296C70.469 61.878 72.118 60.771 72.761 60.601V43.226C75.252 44.902 77.098 46.947 78.68 49.608C81.928 55.053 82.534 62.05 80.147 67.996C78.926 71.045 78.282 71.756 76.549 73.962C76.149 74.473 76.093 74.559 75.639 75.004ZM110.667 71.708V48.273H100.516C100.185 46.862 99.569 45.432 99.038 44.088C98.697 43.245 98.47 42.857 98.147 42.052C97.892 41.418 97.342 40.613 97.201 40.073L104.274 32.896L87.874 16.401L80.647 23.522C79.852 23.266 75.989 20.994 72.399 20.151V10H48.962V20.15L48.934 20.169C45.79 20.898 41.178 23.37 40.733 23.493L33.555 16.42L17.059 32.82L24.18 40.045C23.981 40.661 23.527 41.219 23.242 41.929C22.892 42.772 22.664 43.169 22.352 43.965C21.85 45.224 21.159 46.853 20.818 48.292H10.667V71.727H20.818C21.528 74.795 24.047 79.549 24.142 79.928L17.068 87.105L33.47 103.6L40.696 96.479C41.151 96.612 44.91 98.667 46.605 99.064V83.052C43.802 81.177 42.883 80.391 40.696 78.024C38.291 75.43 36.075 71.586 35.118 68.168C33.442 62.174 33.413 56.436 35.715 50.689C36.34 49.117 36.851 48.094 37.628 46.74C40.365 41.958 44.948 37.868 50.09 35.766L54.219 34.033V54.73C54.209 56.965 53.859 56.993 55.374 57.864C56.217 58.347 57.107 58.906 57.94 59.398C61.321 61.406 59.872 61.547 63.896 59.133C65.042 58.442 65.96 57.864 67.107 57.268V34.032C67.694 34.316 68.433 34.543 69.058 34.818C74.56 37.251 76.718 38.141 81.216 43.16C84.929 47.298 87.419 54.305 87.419 60.195C87.419 65.809 85.687 70.544 83.556 74.094C81.189 78.053 78.48 80.524 74.73 83.033V99.045L79.162 97.227C79.768 96.924 79.9 96.668 80.592 96.507L87.771 103.58L104.266 87.18L97.146 79.955C97.269 79.501 99.721 75.088 100.517 71.708H110.667Z" fill="black"/>
</svg>
